<?xml version="1.0" standalone="no"?>
<!DOCTYPE svg PUBLIC "-//W3C//DTD SVG 20010904//EN"
 "http://www.w3.org/TR/2001/REC-SVG-20010904/DTD/svg10.dtd">
<svg version="1.0" xmlns="http://www.w3.org/2000/svg"
 width="1793.000000pt" height="979.000000pt" viewBox="0 0 1793.000000 979.000000"
 preserveAspectRatio="xMidYMid meet">

<g transform="translate(0.000000,979.000000) scale(0.100000,-0.100000)"
fill="#000000" stroke="none">
<path d="M8500 6670 c0 -374 -2 -680 -5 -680 -3 0 -40 35 -83 78 -125 126
-264 210 -422 253 -75 21 -107 24 -270 24 -149 0 -200 -4 -260 -19 -456 -116
-746 -436 -864 -954 -54 -235 -68 -484 -40 -715 28 -241 70 -386 166 -575 66
-130 135 -225 231 -321 235 -234 536 -347 870 -326 132 8 236 33 345 85 124
59 218 138 329 275 l32 40 0 -203 1 -202 218 2 217 3 3 1958 2 1957 -235 0
-235 0 0 -680z m-551 -742 c172 -53 341 -200 430 -376 68 -133 109 -307 123
-525 20 -283 -7 -539 -76 -727 -54 -147 -180 -299 -317 -381 -311 -187 -686
-94 -915 227 -121 169 -184 426 -184 749 1 400 87 682 264 860 152 153 301
210 515 199 51 -3 123 -15 160 -26z"/>
<path d="M9958 7093 l-228 -137 0 -343 0 -343 -172 -2 -173 -3 0 -185 0 -185
172 -3 172 -2 4 -968 c3 -884 5 -975 21 -1061 23 -119 51 -183 110 -248 132
-146 342 -203 653 -175 111 10 217 27 230 37 2 0 -2 28 -7 61 -6 32 -19 118
-30 189 -12 72 -23 137 -26 146 -4 14 -22 15 -148 11 -164 -5 -198 2 -257 55
-75 68 -72 26 -77 1045 l-4 908 239 2 238 3 0 185 0 185 -237 3 -238 2 0 480
c0 264 -3 480 -7 480 -5 0 -110 -62 -235 -137z"/>
<path d="M11990 6343 c-56 -6 -170 -34 -238 -60 -370 -138 -617 -443 -735
-908 -38 -148 -51 -269 -51 -465 0 -313 49 -535 169 -770 128 -253 301 -434
510 -534 118 -57 204 -82 348 -101 147 -19 206 -19 332 0 217 33 385 117 550
277 32 32 60 58 62 58 2 0 3 -70 3 -156 0 -312 -29 -483 -104 -607 -100 -166
-238 -260 -446 -303 -125 -25 -347 -24 -462 4 -226 55 -338 156 -393 352 l-21
75 -227 3 -227 2 0 -77 c1 -278 151 -493 444 -637 109 -54 186 -79 326 -109
144 -30 491 -32 649 -3 274 49 483 156 651 333 128 134 197 267 240 462 55
249 61 440 58 1856 l-3 1250 -217 3 -218 2 0 -160 c0 -88 -2 -160 -3 -160 -2
0 -44 39 -93 88 -49 48 -114 104 -144 124 -120 79 -264 137 -390 157 -60 10
-289 12 -370 4z m304 -394 c98 -13 167 -37 249 -87 259 -157 388 -402 417
-793 18 -236 -9 -497 -69 -672 -43 -123 -91 -198 -190 -297 -74 -73 -113 -103
-172 -132 -103 -52 -213 -78 -326 -78 -209 0 -380 73 -521 225 -166 178 -242
434 -242 819 0 370 76 615 247 797 169 179 371 251 607 218z"/>
<path d="M4708 3823 l-695 -928 1390 -3 c765 -1 1392 0 1395 3 5 5 -1374 1848
-1387 1853 -4 1 -320 -415 -703 -925z"/>
</g>
</svg>
